<svg width="72" height="72" viewBox="0 0 72 72" fill="none" xmlns="http://www.w3.org/2000/svg">
<g filter="url(#filter0_b_112_3281)">
<rect width="72" height="72" rx="36" fill="white"/>
<rect x="0.5" y="0.5" width="71" height="71" rx="35.5" stroke="#3C7098"/>
<path d="M29.7583 38.4656L28.9778 41.537L26.1252 41.6006C25.2726 39.9338 24.7891 38.0266 24.7891 36C24.7891 34.0403 25.2412 32.1922 26.0426 30.5649H26.0432L28.5829 31.0558L29.6955 33.7169C29.4626 34.4325 29.3357 35.2007 29.3357 36C29.3358 36.8675 29.4849 37.6987 29.7583 38.4656Z" fill="#FBBB00"/>
<path d="M47.0149 33.7922C47.1437 34.5071 47.2108 35.2455 47.2108 36C47.2108 36.8461 47.1264 37.6715 46.9657 38.4676C46.4199 41.1767 44.9939 43.5422 43.0184 45.2163L43.0178 45.2156L39.8189 45.0436L39.3661 42.0643C40.677 41.2539 41.7014 39.9857 42.241 38.4676H36.2461V33.7922H42.3285H47.0149Z" fill="#518EF8"/>
<path d="M43.0182 45.2158L43.0188 45.2164C41.0975 46.8444 38.6569 47.8184 36.0001 47.8184C31.7306 47.8184 28.0186 45.3028 26.125 41.6009L29.7582 38.4658C30.705 41.1294 33.1425 43.0256 36.0001 43.0256C37.2284 43.0256 38.3791 42.6755 39.3665 42.0645L43.0182 45.2158Z" fill="#28B446"/>
<path d="M43.1567 26.9027L39.5248 30.0371C38.5028 29.3637 37.2948 28.9747 36.0006 28.9747C33.0783 28.9747 30.5952 30.9578 29.6959 33.7169L26.0436 30.565H26.043C27.9088 26.7728 31.6677 24.1819 36.0006 24.1819C38.7209 24.1819 41.2151 25.2033 43.1567 26.9027Z" fill="#F14336"/>
</g>
<defs>
<filter id="filter0_b_112_3281" x="-4" y="-4" width="80" height="80" filterUnits="userSpaceOnUse" color-interpolation-filters="sRGB">
<feFlood flood-opacity="0" result="BackgroundImageFix"/>
<feGaussianBlur in="BackgroundImageFix" stdDeviation="2"/>
<feComposite in2="SourceAlpha" operator="in" result="effect1_backgroundBlur_112_3281"/>
<feBlend mode="normal" in="SourceGraphic" in2="effect1_backgroundBlur_112_3281" result="shape"/>
</filter>
</defs>
</svg>
